# xmcd
# Track frame offsets:
# 150
# 12547
# 24036
# 37414
# 50323
# 61373
# 73705
# 84992
# 96888
# 108486
# 119693
# 129479
# 141302
# 160339
# 171646
# 182579
# 194507
# 205259
# 215935
# 227689
# 239192
# 250439
# 260492
# 270606
# 283007
#
# Disc length: 3917 seconds
# Revision: 0
# Processed by: cddbd v1.5.2PL0 Copyright (c) Steve Scherf et al.
# Submitted via: VisiTrax 2.11.3.279 - For more info visit www.synapsa.com
#
DISCID=8e0f4b19
DTITLE=Various (1950's-1960's) Country and Western Artists - 75 Original Countr
DTITLE=y Love Songs: CD2 of 3: ReMastered Tracks
DYEAR=2015
DGENRE=Country
TTITLE0=Patsy Cline - Crazy*
TTITLE1=Marty Robbins - The Story Of My Life*
TTITLE2=Claude King - Wolverton Mountain*
TTITLE3=Jim Reeves - Have I Told You Lately That I Love You?*
TTITLE4=Johnny Tillotson - I Can't Help It (If I'm Still In Love With You)*
TTITLE5=Willie Nelson and Shirley Collie - Willingly*
TTITLE6=Don Gibson - Oh Lonesome Me*
TTITLE7=Buck Owens - Foolin' Around*
TTITLE8=Eddy Arnold - I Really Don't Need To Know*
TTITLE9=George Jones - Big Fool Of The Year*
TTITLE10=Webb Pierce - Bye Bye Love*
TTITLE11=Skeeter Davis - The End Of The World*
TTITLE12=Ray Charles - I Can't Stop Loving You*
TTITLE13=Hank Snow - (Now And The There's) A Fool Such As I*
TTITLE14=Faron Young - Hello Walls*
TTITLE15=Ronnie Hawkins - Cold, Cold Heart*
TTITLE16=Hank Locklin - Please Help Me I'm Falling*
TTITLE17=Kitty Wells - Unloved, Unwanted*
TTITLE18=Clen Campbell - Too Late To Worry, Too Blue Top Cry*
TTITLE19=Ray Price - Crazy Arms*
TTITLE20=Elvis Presley - I Forgot To Remember To Forget*
TTITLE21=Conway Twitty - It's Only Make Believe*
TTITLE22=Ernest Ashworth - You Can't Pick A Rose In December*
TTITLE23=Skeets McDonald - Don't Let The Stars Get In Your Eyes*
TTITLE24=Johnny Cash - My Shoes Keep Walking Back To You*
EXTD=Compilation and Mastering: Not Now Music: 2015
EXTT0=
EXTT1=
EXTT2=
EXTT3=
EXTT4=
EXTT5=
EXTT6=
EXTT7=
EXTT8=
EXTT9=
EXTT10=
EXTT11=
EXTT12=
EXTT13=
EXTT14=
EXTT15=
EXTT16=
EXTT17=
EXTT18=
EXTT19=
EXTT20=
EXTT21=
EXTT22=
EXTT23=
EXTT24=
PLAYORDER=
